# xmcd
#
# Track frame offsets: 
#        150
#        13965
#        37020
#        54052
#        70580
#        86149
#        102446
#        105065
#        123106
#        141765
#        158311
#        175401
#        195736
#
# Disc length: 2848 seconds
#
# Revision: 0
# Processed by: cddbd v1.5.2PL0 Copyright (c) Steve Scherf et al.
# Submitted via: ExactAudioCopyFreeDBPlugin 1.0
#
DISCID=9d0b1e0d
DTITLE=Ronald Isley - This Song Is For You
DYEAR=2013
DGENRE=R&B
TTITLE0=This Song Is For You
TTITLE1=Dinner And A Movie
TTITLE2=My Favorite Thing (feat. Kem)
TTITLE3=The Boss
TTITLE4=Bed Time
TTITLE5=Another Night
TTITLE6=Lay You Down Intro
TTITLE7=Lay You Down (feat. Trey Songz)
TTITLE8=Reunion
TTITLE9=He Won't Ever Love You
TTITLE10=Better Or Worse
TTITLE11=Let's Be Alone
TTITLE12=Make Love To Your Soul
EXTD=
EXTT0=
EXTT1=
EXTT2=
EXTT3=
EXTT4=
EXTT5=
EXTT6=
EXTT7=
EXTT8=
EXTT9=
EXTT10=
EXTT11=
EXTT12=
PLAYORDER=
